<svg width="3e3" height="3e3" version="1.1" viewBox="0 0 793.75 793.75" xmlns="http://www.w3.org/2000/svg" xmlns:xlink="http://www.w3.org/1999/xlink">
 <defs>
  <clipPath id="clipPath8919">
   <path d="m-14.522 562.68v37.545h-1.1015v94.141h826.1v-94.141h-692.38v-37.545z" display="none" fill="#ff6400" fill-opacity=".39474" style="paint-order:normal"/>
   <path class="powerclip" d="m20.131 20.131h753.49v753.49h-753.49zm-34.653 542.55v37.545h-1.1015v94.141h826.1v-94.141h-692.38v-37.545z" display="block" fill="#ff6400" fill-opacity=".39474" style="paint-order:normal"/>
  </clipPath>
  <clipPath id="clipPath8923">
   <path d="m1.5875 556.19v36.075h-1.0583v90.455h793.75v-90.455h-665.27v-36.075z" display="none" fill="#ff6400" fill-opacity=".39474" style="paint-order:normal"/>
   <path class="powerclip" d="m16.162 16.162h761.43v761.43h-761.43zm-14.574 540.03v36.075h-1.0583v90.455h793.75v-90.455h-665.27v-36.075z" display="block" fill="#ff6400" fill-opacity=".39474" style="paint-order:normal"/>
  </clipPath>
 </defs>
 <g fill="none" stroke="#000">
  <path d="m765.97 396.88a369.1 369.1 0 0 1-369.1 369.1 369.1 369.1 0 0 1-369.1-369.1 369.1 369.1 0 0 1 369.1-369.1 369.1 369.1 0 0 1 369.1 369.1z" clip-path="url(#clipPath8923)" stroke-width="13.229" style="mix-blend-mode:normal;paint-order:normal"/>
  <path transform="matrix(.96084 0 0 .96084 15.541 15.541)" d="m765.97 396.88a369.1 369.1 0 0 1-369.1 369.1 369.1 369.1 0 0 1-369.1-369.1 369.1 369.1 0 0 1 369.1-369.1 369.1 369.1 0 0 1 369.1 369.1z" clip-path="url(#clipPath8919)" stroke-width="5.2917" style="mix-blend-mode:normal;paint-order:normal"/>
 </g>
 <g transform="matrix(.71051 0 0 .71051 89.993 -42.661)">
  <path d="m753.8 556.5c-35.8-13.9-67.8-35-64.7-47.2-14.9-18-75.4-127.2-75.4-127.2-13.7-11.2-43.6 25.2-59.7 33.9-5.7-4.1-13.8-28.4-14.9-39.6-1-9.7-14.5-5.7-21.8 2.9-0.3-0.2-0.5-0.4-0.8-0.5 5.7-11.3 23.5-18.4 24.7-7.2 0.3 2.9 1.1 6.7 2.1 10.8 1.8-3.2 3.1-6.8 3.7-10.5 4.5 3.8 10.6 6.1 17.3 6.1 11.6 0 21.3-6.9 24.3-16.2 4.6 5.3 11.8 8.7 20 8.7 4.2 0 8.2-0.9 11.7-2.6 17.3 71.5 70.2 111.4 151.3 102.2 15.4-6.2 14.5-14.7 14.5-14.7s19.9-181.3-154.9-129.5l-2.5 9.2c-4.6-5.4-11.9-8.9-20.2-8.9-11.6 0-21.3 6.9-24.3 16.2-4.6-5.3-11.8-8.7-20-8.7-10.9 0-20.1 6.1-23.7 14.5-6.5-8.3-17.2-13.8-29.3-13.8-12.9 0-24.2 6.2-30.6 15.5-6.7-13.8-19.3-27.9-33.9-33.4-25.9-9.8-46.8-5.3-57.9 9.8-2.8-23.6-19.3-44.6-54.4-38.4-29 5.1-50.6 22.4-63.3 43.3-3.9 0.9-7.8 2.1-11.7 3.2-7.9 2.3-15.8 5-23.7 6.4-4 0.7-7.9 1.1-11.6 0.6-1.8-0.2-3.5-0.7-5-1.5-0.7-0.3-1.6-0.9-2.4-1.4l-2.5-1.6c-6.7-4.6-13.4-9.3-20.3-13.3s-14.1-7.3-21.2-9.7-14.2-3.7-20.8-4.2c-13.3-1-24.4 1.3-31.8 3.5-3.7 1.1-6.6 2.1-8.5 2.9-1.9 0.7-3 1.1-3 1.1-0.1 0-0.2 0.1-0.3 0.1-3.1 1.4-4.5 5.1-3.1 8.2s5.1 4.5 8.2 3.1l0.3-0.1s0.9-0.4 2.6-1.2 4.2-1.8 7.4-3c6.4-2.2 16-4.9 27.7-4.6 11.7 0.2 25.4 3.6 38.9 10.6 6.8 3.4 13.5 7.6 20.6 11.9l2.8 1.6c0.9 0.5 1.8 1 3 1.5 2.3 1 4.6 1.5 6.9 1.7 4.6 0.3 9-0.4 13.2-1.4 8.4-2 16.1-5.1 23.8-7.8 2.8-1 5.7-2 8.5-2.9-5.6 10.3-9.2 21.2-10.5 32-0.9-0.2-1.8-0.5-2.7-0.7-1.9-0.4-3.8-0.9-5.9-1.2-2.1-0.2-4.3 0.1-6.3 0.5-8.2 2-15.6 6.1-23.2 9.9-7.5 3.8-15.2 7.9-23.1 10.2-3.9 1.1-7.9 1.7-11.4 0.9-1.5-0.4-3.7-1.3-5.6-2-2-0.8-4-1.6-5.9-2.4-7.9-3.2-15.9-6.1-23.9-8.3-15.9-4.5-31.8-6-45.4-4.4-13.6 1.4-24.5 5.6-31.7 9.1-3.6 1.8-6.4 3.3-8.2 4.5-1.8 1.1-2.8 1.7-2.8 1.7-0.1 0.1-0.2 0.1-0.3 0.2-2.8 1.9-3.5 5.8-1.6 8.6s5.8 3.5 8.6 1.6l0.3-0.2s0.8-0.6 2.4-1.6c1.5-1.1 3.9-2.6 7-4.3 6.2-3.4 15.5-7.6 27.7-9.5 12.1-2 26.8-1.5 42.2 2 7.7 1.7 15.6 4.1 23.5 6.8l6 2.1c2.2 0.7 3.9 1.4 6.6 2 5.1 0.8 9.8-0.3 14-1.7 8.6-3 16-7.6 23.4-11.8 7.3-4.2 14.5-8.6 22-10.9 1.9-0.5 3.7-0.8 5.6-0.8 1.9 0.1 3.8 0.6 5.7 0.9 1 0.2 1.9 0.4 2.9 0.6-1 9.9 0 19.6 3 28.2 0 0-10.3 31.5-0.7 50.7 12.2-16.1 67.4-39.5 99.5-62.4 3.9-7.1 6.4-11.7 6.4-11.7 1.2-2.2 4.8-2.8 9.8-2.2 0.5-0.6 1.1-1.2 1.6-1.8 4.3-5.4 7.5-12.3 9.4-19.7 7.4 16 27 36.2 56.4 37.9-4.8-9.7-11.1-21.8-10.8-28.4 0.5-10.7 27.5-4.8 31.9 5.7-9-7-27.3-9.4-27.7-0.6-0.5 11.2 18.3 38.6 15.8 42.7-7.2-8.7-75.9-39.7-82.1-28.5 0 0-44.7 80.7-51.4 98.7 1.5 13-12.2 33.9-26 47.5-5.3 5.3-10.7 9.5-15.2 11.6 34.5-2.1 48.2-46.7 48.2-55.9 32.3-33 44.2-83.9 52.6-90.7 25.2 11.4 77.4 33.7 87.9 28.4 7.9-4 3.7-20.9 1.9-33.5 2.8-0.8 5.8-1.8 8.7-2.9 0.4-0.2 0.8-0.3 1.1-0.5 1.6 3 3.7 5.8 6.2 8.3-1-6.2-1.7-11.6-1.6-14.9 0.4-9.3 14.3-0.7 20.5 9-6.8-8.2-17.8-14.1-18.1-5.8-0.5 11.2 9.2 47.8 6.6 51.9-7.2-8.7-27.3-12.2-33.4-1 0 0-12.3 68.9-19 86.9 1.8 15.8-5.5 67.5-18.2 84.9-1.7 2.4-3.5 4.1-5.5 5.1 34.5-2.1 29.3-73.5 29.3-82.8 21.6-19 15.9-72.1 19.5-84.3 27 1 24.7 14.4 35.2 9.1 9.5-4.8 5.4-33.6 6.6-47.9 1.5 0.2 2.9 0.3 4.4 0.3 4.7 0 9.1-0.8 13.2-2.3 5.1 11.1 10.6 24.6 27.2 28.3 23.5 5.3 12.5-24.7 56.7-31.2 30.7 38.7 39.9 90.8 66.7 117.6 0 9.3 52.5 55.2 129.2 57.3-15.4-1.6-33.4-6.7-50.5-13.3m-92.4-229.6c2.9-0.8 6.5-1.2 10.7-1.9s8.9-0.8 14.1-1.1c2.6 0.1 5.3 0.1 8.2 0.2 2.8 0.2 5.7 0.7 8.7 1 3 0.4 6 1.2 9.1 1.9 3.1 0.8 6.2 1.9 9.3 3 6.1 2.6 12.5 5.5 18.1 9.8 3 1.9 5.5 4.4 8.2 6.7 2.5 2.5 5.2 4.9 7.3 7.7 4.7 5.4 8.4 11.5 11.8 17.5 3.4 6.1 5.7 12.5 7.9 18.6 4.1 12.5 6.1 24.5 6.9 34.8 0.9 10.3 0.4 19-0.2 25s-1.7 9.3-1.7 9.3 0.4-3.4 0.1-9.3-1.1-14.4-2.8-24.3c-1.8-9.9-4.6-21.4-9-33-2.3-5.8-4.9-11.6-8.1-17.3-3.2-5.6-6.8-11.1-11.1-16-2-2.6-4.4-4.8-6.6-7.1-2.5-2.1-4.7-4.4-7.4-6.2-5-3.9-10.6-6.9-16.1-9.5-2.9-1.1-5.6-2.2-8.4-3.2-2.9-0.8-5.6-1.8-8.4-2.3s-5.5-1.1-8.1-1.5c-2.7-0.3-5.3-0.6-7.7-0.9-2.5-0.2-4.9-0.2-7.2-0.4-2.3-0.1-4.5-0.2-6.5-0.1-4.1 0.2-7.7 0-10.7 0.3-6 0.4-9.4 0.7-9.4 0.7s3.2-0.9 9-2.4m-72.5 16c0.2-0.7 0.9-1.4 1.5-2.4s1.6-1.7 2.6-2.6c1-0.8 2.3-1.6 3.6-2.3 1.4-0.6 2.8-1.4 4.4-1.8 3.2-1.1 6.8-1.4 10.3-1.3 1.8 0.2 3.6 0.4 5.3 0.9 1.8 0.3 3.3 1.3 4.9 1.9 1.4 1 2.9 1.8 3.9 3.1 0.5 0.6 1.1 1.1 1.5 1.8s0.7 1.3 1 1.9c0.8 1.2 0.8 2.5 1.1 3.5s0.2 2 0.2 2.8c-0.1 1.5-0.2 2.3-0.2 2.3s-0.2-0.8-0.6-2.2c-0.2-0.7-0.3-1.5-0.9-2.4-0.5-0.8-0.8-1.9-1.6-2.8-0.7-0.9-1.5-1.9-2.6-2.6-0.9-0.9-2.3-1.4-3.4-2.1-1.4-0.4-2.7-1.1-4.2-1.3-1.5-0.4-3-0.5-4.6-0.6-1.5-0.1-3.1-0.1-4.7 0-1.5 0.2-3.1 0.3-4.5 0.6-2.9 0.5-5.5 1.5-7.7 2.6-0.9 0.7-2.1 1.1-2.7 1.7-0.7 0.6-1.5 1.1-1.9 1.7-0.9 1.2-1.5 1.8-1.5 1.8s0.3-0.8 0.8-2.2m-44.3 8.2c0.2-0.7 0.7-1.5 1.2-2.4 0.5-1 1.3-1.8 2.1-2.9 0.9-0.9 1.9-2 3.1-2.8 0.6-0.4 1.3-0.9 1.9-1.3 0.7-0.4 1.4-0.7 2.2-1.1 0.7-0.4 1.5-0.6 2.4-0.9 0.8-0.3 1.6-0.6 2.5-0.7s1.7-0.3 2.6-0.4l2.7-0.1c0.9 0 1.8 0.2 2.7 0.3s1.8 0.3 2.6 0.6c1.7 0.4 3.3 1.4 4.7 2.2 1.4 0.9 2.6 2 3.7 3 1 1.2 1.9 2.2 2.6 3.3s1.2 2.2 1.7 3.1c0.2 0.4 0.3 0.8 0.5 1.2 0.2 0.5 0.3 0.9 0.4 1.3 0.4 1.2 0.6 1.9 0.6 2.1v0.1s-0.5-0.7-1.4-1.8c-0.4-0.6-0.9-1.3-1.5-2.1-0.7-0.7-1.4-1.5-2.2-2.4s-1.9-1.6-2.8-2.5c-1.1-0.7-2.2-1.5-3.5-2.2-1.3-0.6-2.6-1.2-4-1.5-0.7-0.2-1.4-0.4-2.1-0.5s-1.5-0.3-2.2-0.2h-2.2c-0.7 0.1-1.5 0.2-2.2 0.3-1.4 0.2-2.9 0.5-4.2 1-1.4 0.5-2.6 1-3.8 1.6s-2.2 1.3-3.2 2c-0.8 0.8-1.8 1.4-2.4 2.1s-1.3 1.2-1.7 1.9c-0.9 1.2-1.4 1.8-1.4 1.8l0.6-2.1m-166.4-27.5c-0.5-0.9-1.1-2.3-2.1-3.9-0.5-0.8-1.1-1.7-1.7-2.6-0.7-0.9-1.5-1.8-2.3-2.8-1.7-1.9-3.9-3.7-6.4-5.4-2.7-1.4-5.7-2.7-9.1-3.3s-7.1-0.8-10.9-0.4c-3.8 0.3-7.8 1.2-11.7 2.3-4 1-7.9 2.6-11.8 4.2s-7.7 3.5-11.4 5.6c-3.6 2.1-7.2 4.2-10.5 6.5s-6.4 4.6-9.2 7-5.3 4.7-7.6 7c-4.4 4.6-7.5 9.1-9.2 12.5-0.8 1.7-1.5 3.1-1.7 4.1-0.3 1-0.5 1.5-0.5 1.5s0-0.6 0.1-1.6c0-1 0.1-2.6 0.6-4.5s1.2-4.3 2.4-6.8c1.1-2.6 2.7-5.3 4.7-8.1 1-1.4 2.1-2.8 3.2-4.3 1.2-1.4 2.4-2.8 3.8-4.3 2.7-2.8 5.7-5.7 9.1-8.3 3.3-2.7 6.9-5.3 10.8-7.6s7.9-4.4 12.1-6.3c4.2-1.7 8.6-3.3 13-4.4 4.4-1.2 9-1.7 13.4-1.8 4.4-0.2 8.8 0.5 12.7 1.6 4 1.1 7.5 3.2 10.3 5.4 1.3 1.2 2.6 2.3 3.6 3.6 0.9 1.3 2 2.5 2.6 3.7 0.6 1.3 1.3 2.4 1.8 3.5 0.4 1.1 0.8 2.2 1.1 3.1 0.7 1.9 0.8 3.5 1 4.5s0.3 1.6 0.3 1.6-0.1-0.3-0.5-1.3m92.6 29.2c-0.9-1.4-2.4-2.6-3.7-4.1-1.4-1.5-3.2-2.8-4.9-4.3-1.9-1.3-3.8-2.9-6-4.2-1.1-0.7-2.1-1.4-3.2-2.1-1.2-0.6-2.3-1.2-3.5-1.9-2.3-1.3-4.8-2.4-7.2-3.5-2.5-1-5-2.1-7.5-2.9-2.5-0.9-5-1.6-7.4-2.3-2.4-0.6-4.8-1.1-7.1-1.5-2.3-0.2-4.5-0.7-6.5-0.7s-3.9-0.2-5.5 0-3.1 0-4.4 0.4c-2.5 0.5-3.9 0.7-3.9 0.7s1.2-0.9 3.3-2.2c1-0.8 2.5-1.3 4.2-2 1.8-0.8 3.7-1.2 6-1.6 2.2-0.6 4.6-0.6 7.2-0.7 2.6 0 5.3 0.1 8.1 0.5 2.8 0.5 5.7 0.9 8.5 1.8 2.9 0.7 5.6 1.9 8.4 2.9 2.7 1.3 5.4 2.5 7.9 4.1 2.5 1.5 4.9 3.2 7 5 2.3 1.6 4.1 3.8 5.9 5.6 1.6 2 3.2 3.9 4.4 5.8 1.1 2 2.2 3.7 2.8 5.5s1.3 3.2 1.3 4.5c0.4 2.6 0.5 4 0.5 4s-0.8-1.3-2-3.4c-0.6-1-1.8-2.1-2.7-3.4m36.6-8.8c-1.8 0.1-3.6 0.4-5.4 0.7-1.7 0.4-3.4 0.7-4.9 1.3-1.6 0.5-2.9 1.1-4.2 1.7s-2.3 1.4-3.3 2c-0.8 0.7-1.6 1.4-2.2 1.9-1 1.4-1.7 2.2-1.7 2.2s0.3-0.9 1-2.6c0.5-0.7 1.1-1.6 1.9-2.7 0.9-0.9 1.9-1.9 3.1-2.8 1.3-0.9 2.6-1.9 4.3-2.6 1.6-0.8 3.3-1.4 5.2-2 1.9-0.5 3.8-1 5.8-1.2s4.1-0.3 6.2-0.2c2.1 0 4.1 0.6 6.1 1 2 0.7 3.9 1.2 5.6 2.3 0.9 0.5 1.8 0.9 2.5 1.5l2.1 1.8c1.4 1.1 2.3 2.7 3.3 3.8 0.9 1.3 1.4 2.7 1.9 3.8 0.6 1.1 0.7 2.2 0.9 3.1 0.4 1.7 0.5 2.7 0.5 2.7s-0.5-0.9-1.3-2.4c-0.4-0.7-0.7-1.7-1.5-2.6s-1.4-2-2.4-3c-1.1-0.9-2-2.1-3.4-2.9-1.3-0.9-2.7-1.8-4.3-2.4-1.5-0.8-3.3-1.1-5-1.7-1.8-0.3-3.6-0.7-5.4-0.7-1.7-0.2-3.6-0.1-5.4 0m22.8-12.7c4.5-6.6 18.5-57 21.3-70.7 2.7-13.7 42.5 35 61.7 31.5v3.1c-4.6 4.9-40.1-16.4-51.4-21.9s-18.2 63.3-22.6 66.1c-4.6 2.9-8-4.7-9-8.1m-83.3-22.7c5.1-1.4 6.9-28.1 12-30.2s31.8 47.7 35 55.4l-12.7 7.5s-14.4-46.7-18.7-48.4-9.8 20.2-9.8 20.2-6.5 1-5.8-4.5"/>
 </g>
 <g>
  <text x="266.08762" y="550.43311" fill="#000000" font-family="Akbaal" font-size="141.11px" stroke-width="2.9501" style="font-variant-caps:normal;font-variant-east-asian:normal;font-variant-ligatures:normal;font-variant-numeric:normal;line-height:1.25" xml:space="preserve"><tspan x="266.08762" y="550.43311" fill="#000000" font-family="Akbaal" font-size="141.11px" stroke-width="2.9501" style="font-variant-caps:normal;font-variant-east-asian:normal;font-variant-ligatures:normal;font-variant-numeric:normal">FC</tspan></text>
 </g>
 <g>
  <text x="19.104797" y="673.51923" fill="#000000" font-family="Akbaal" font-size="105.83px" stroke-width="3.584" style="font-variant-caps:normal;font-variant-east-asian:normal;font-variant-ligatures:normal;font-variant-numeric:normal;line-height:1.25;paint-order:normal" xml:space="preserve"><tspan x="19.104797" y="673.51923">Consulting</tspan></text>
 </g>
</svg>
