<?xml version="1.0" encoding="utf-8"?>
<!-- Generator: Adobe Illustrator 21.0.0, SVG Export Plug-In . SVG Version: 6.00 Build 0)  -->
<svg version="1.1" id="katman_1" xmlns="http://www.w3.org/2000/svg" xmlns:xlink="http://www.w3.org/1999/xlink" x="0px" y="0px"
	 viewBox="0 0 864 864" style="enable-background:new 0 0 864 864;" xml:space="preserve">
<g>
	<path d="M753.8,556.5c-35.8-13.9-67.8-35-64.7-47.2c-14.9-18-75.4-127.2-75.4-127.2c-13.7-11.2-43.6,25.2-59.7,33.9
		c-5.7-4.1-13.8-28.4-14.9-39.6c-1-9.7-14.5-5.7-21.8,2.9c-0.3-0.2-0.5-0.4-0.8-0.5c5.7-11.3,23.5-18.4,24.7-7.2
		c0.3,2.9,1.1,6.7,2.1,10.8c1.8-3.2,3.1-6.8,3.7-10.5c4.5,3.8,10.6,6.1,17.3,6.1c11.6,0,21.3-6.9,24.3-16.2c4.6,5.3,11.8,8.7,20,8.7
		c4.2,0,8.2-0.9,11.7-2.6c17.3,71.5,70.2,111.4,151.3,102.2c15.4-6.2,14.5-14.7,14.5-14.7S806,274.1,631.2,325.9l-2.5,9.2
		c-4.6-5.4-11.9-8.9-20.2-8.9c-11.6,0-21.3,6.9-24.3,16.2c-4.6-5.3-11.8-8.7-20-8.7c-10.9,0-20.1,6.1-23.7,14.5
		c-6.5-8.3-17.2-13.8-29.3-13.8c-12.9,0-24.2,6.2-30.6,15.5c-6.7-13.8-19.3-27.9-33.9-33.4c-25.9-9.8-46.8-5.3-57.9,9.8
		c-2.8-23.6-19.3-44.6-54.4-38.4c-29,5.1-50.6,22.4-63.3,43.3c-3.9,0.9-7.8,2.1-11.7,3.2c-7.9,2.3-15.8,5-23.7,6.4
		c-4,0.7-7.9,1.1-11.6,0.6c-1.8-0.2-3.5-0.7-5-1.5c-0.7-0.3-1.6-0.9-2.4-1.4l-2.5-1.6c-6.7-4.6-13.4-9.3-20.3-13.3
		c-6.9-4-14.1-7.3-21.2-9.7c-7.1-2.4-14.2-3.7-20.8-4.2c-13.3-1-24.4,1.3-31.8,3.5c-3.7,1.1-6.6,2.1-8.5,2.9c-1.9,0.7-3,1.1-3,1.1
		c-0.1,0-0.2,0.1-0.3,0.1c-3.1,1.4-4.5,5.1-3.1,8.2c1.4,3.1,5.1,4.5,8.2,3.1l0.3-0.1c0,0,0.9-0.4,2.6-1.2c1.7-0.8,4.2-1.8,7.4-3
		c6.4-2.2,16-4.9,27.7-4.6c11.7,0.2,25.4,3.6,38.9,10.6c6.8,3.4,13.5,7.6,20.6,11.9l2.8,1.6c0.9,0.5,1.8,1,3,1.5
		c2.3,1,4.6,1.5,6.9,1.7c4.6,0.3,9-0.4,13.2-1.4c8.4-2,16.1-5.1,23.8-7.8c2.8-1,5.7-2,8.5-2.9c-5.6,10.3-9.2,21.2-10.5,32
		c-0.9-0.2-1.8-0.5-2.7-0.7c-1.9-0.4-3.8-0.9-5.9-1.2c-2.1-0.2-4.3,0.1-6.3,0.5c-8.2,2-15.6,6.1-23.2,9.9
		c-7.5,3.8-15.2,7.9-23.1,10.2c-3.9,1.1-7.9,1.7-11.4,0.9c-1.5-0.4-3.7-1.3-5.6-2c-2-0.8-4-1.6-5.9-2.4c-7.9-3.2-15.9-6.1-23.9-8.3
		c-15.9-4.5-31.8-6-45.4-4.4c-13.6,1.4-24.5,5.6-31.7,9.1c-3.6,1.8-6.4,3.3-8.2,4.5c-1.8,1.1-2.8,1.7-2.8,1.7
		c-0.1,0.1-0.2,0.1-0.3,0.2c-2.8,1.9-3.5,5.8-1.6,8.6c1.9,2.8,5.8,3.5,8.6,1.6l0.3-0.2c0,0,0.8-0.6,2.4-1.6c1.5-1.1,3.9-2.6,7-4.3
		c6.2-3.4,15.5-7.6,27.7-9.5c12.1-2,26.8-1.5,42.2,2c7.7,1.7,15.6,4.1,23.5,6.8c2,0.7,4,1.4,6,2.1c2.2,0.7,3.9,1.4,6.6,2
		c5.1,0.8,9.8-0.3,14-1.7c8.6-3,16-7.6,23.4-11.8c7.3-4.2,14.5-8.6,22-10.9c1.9-0.5,3.7-0.8,5.6-0.8c1.9,0.1,3.8,0.6,5.7,0.9
		c1,0.2,1.9,0.4,2.9,0.6c-1,9.9,0,19.6,3,28.2c0,0-10.3,31.5-0.7,50.7c12.2-16.1,67.4-39.5,99.5-62.4c3.9-7.1,6.4-11.7,6.4-11.7
		c1.2-2.2,4.8-2.8,9.8-2.2c0.5-0.6,1.1-1.2,1.6-1.8c4.3-5.4,7.5-12.3,9.4-19.7c7.4,16,27,36.2,56.4,37.9
		c-4.8-9.7-11.1-21.8-10.8-28.4c0.5-10.7,27.5-4.8,31.9,5.7c-9-7-27.3-9.4-27.7-0.6c-0.5,11.2,18.3,38.6,15.8,42.7
		c-7.2-8.7-75.9-39.7-82.1-28.5c0,0-44.7,80.7-51.4,98.7c1.5,13-12.2,33.9-26,47.5c-5.3,5.3-10.7,9.5-15.2,11.6
		c34.5-2.1,48.2-46.7,48.2-55.9c32.3-33,44.2-83.9,52.6-90.7c25.2,11.4,77.4,33.7,87.9,28.4c7.9-4,3.7-20.9,1.9-33.5
		c2.8-0.8,5.8-1.8,8.7-2.9c0.4-0.2,0.8-0.3,1.1-0.5c1.6,3,3.7,5.8,6.2,8.3c-1-6.2-1.7-11.6-1.6-14.9c0.4-9.3,14.3-0.7,20.5,9
		c-6.8-8.2-17.8-14.1-18.1-5.8c-0.5,11.2,9.2,47.8,6.6,51.9c-7.2-8.7-27.3-12.2-33.4-1c0,0-12.3,68.9-19,86.9
		c1.8,15.8-5.5,67.5-18.2,84.9c-1.7,2.4-3.5,4.1-5.5,5.1c34.5-2.1,29.3-73.5,29.3-82.8c21.6-19,15.9-72.1,19.5-84.3
		c27,1,24.7,14.4,35.2,9.1c9.5-4.8,5.4-33.6,6.6-47.9c1.5,0.2,2.9,0.3,4.4,0.3c4.7,0,9.1-0.8,13.2-2.3c5.1,11.1,10.6,24.6,27.2,28.3
		c23.5,5.3,12.5-24.7,56.7-31.2c30.7,38.7,39.9,90.8,66.7,117.6c0,9.3,52.5,55.2,129.2,57.3C788.9,568.2,770.9,563.1,753.8,556.5
		 M661.4,326.9c2.9-0.8,6.5-1.2,10.7-1.9c4.2-0.7,8.9-0.8,14.1-1.1c2.6,0.1,5.3,0.1,8.2,0.2c2.8,0.2,5.7,0.7,8.7,1
		c3,0.4,6,1.2,9.1,1.9c3.1,0.8,6.2,1.9,9.3,3c6.1,2.6,12.5,5.5,18.1,9.8c3,1.9,5.5,4.4,8.2,6.7c2.5,2.5,5.2,4.9,7.3,7.7
		c4.7,5.4,8.4,11.5,11.8,17.5c3.4,6.1,5.7,12.5,7.9,18.6c4.1,12.5,6.1,24.5,6.9,34.8c0.9,10.3,0.4,19-0.2,25c-0.6,6-1.7,9.3-1.7,9.3
		s0.4-3.4,0.1-9.3c-0.3-5.9-1.1-14.4-2.8-24.3c-1.8-9.9-4.6-21.4-9-33c-2.3-5.8-4.9-11.6-8.1-17.3c-3.2-5.6-6.8-11.1-11.1-16
		c-2-2.6-4.4-4.8-6.6-7.1c-2.5-2.1-4.7-4.4-7.4-6.2c-5-3.9-10.6-6.9-16.1-9.5c-2.9-1.1-5.6-2.2-8.4-3.2c-2.9-0.8-5.6-1.8-8.4-2.3
		c-2.8-0.5-5.5-1.1-8.1-1.5c-2.7-0.3-5.3-0.6-7.7-0.9c-2.5-0.2-4.9-0.2-7.2-0.4c-2.3-0.1-4.5-0.2-6.5-0.1c-4.1,0.2-7.7,0-10.7,0.3
		c-6,0.4-9.4,0.7-9.4,0.7S655.6,328.4,661.4,326.9 M588.9,342.9c0.2-0.7,0.9-1.4,1.5-2.4c0.6-1,1.6-1.7,2.6-2.6
		c1-0.8,2.3-1.6,3.6-2.3c1.4-0.6,2.8-1.4,4.4-1.8c3.2-1.1,6.8-1.4,10.3-1.3c1.8,0.2,3.6,0.4,5.3,0.9c1.8,0.3,3.3,1.3,4.9,1.9
		c1.4,1,2.9,1.8,3.9,3.1c0.5,0.6,1.1,1.1,1.5,1.8c0.4,0.7,0.7,1.3,1,1.9c0.8,1.2,0.8,2.5,1.1,3.5c0.3,1,0.2,2,0.2,2.8
		c-0.1,1.5-0.2,2.3-0.2,2.3s-0.2-0.8-0.6-2.2c-0.2-0.7-0.3-1.5-0.9-2.4c-0.5-0.8-0.8-1.9-1.6-2.8c-0.7-0.9-1.5-1.9-2.6-2.6
		c-0.9-0.9-2.3-1.4-3.4-2.1c-1.4-0.4-2.7-1.1-4.2-1.3c-1.5-0.4-3-0.5-4.6-0.6c-1.5-0.1-3.1-0.1-4.7,0c-1.5,0.2-3.1,0.3-4.5,0.6
		c-2.9,0.5-5.5,1.5-7.7,2.6c-0.9,0.7-2.1,1.1-2.7,1.7c-0.7,0.6-1.5,1.1-1.9,1.7c-0.9,1.2-1.5,1.8-1.5,1.8S588.4,344.3,588.9,342.9
		 M544.6,351.1c0.2-0.7,0.7-1.5,1.2-2.4c0.5-1,1.3-1.8,2.1-2.9c0.9-0.9,1.9-2,3.1-2.8c0.6-0.4,1.3-0.9,1.9-1.3
		c0.7-0.4,1.4-0.7,2.2-1.1c0.7-0.4,1.5-0.6,2.4-0.9c0.8-0.3,1.6-0.6,2.5-0.7c0.9-0.1,1.7-0.3,2.6-0.4l2.7-0.1c0.9,0,1.8,0.2,2.7,0.3
		c0.9,0.1,1.8,0.3,2.6,0.6c1.7,0.4,3.3,1.4,4.7,2.2c1.4,0.9,2.6,2,3.7,3c1,1.2,1.9,2.2,2.6,3.3c0.7,1.1,1.2,2.2,1.7,3.1
		c0.2,0.4,0.3,0.8,0.5,1.2c0.2,0.5,0.3,0.9,0.4,1.3c0.4,1.2,0.6,1.9,0.6,2.1c0,0,0,0.1,0,0.1s-0.5-0.7-1.4-1.8
		c-0.4-0.6-0.9-1.3-1.5-2.1c-0.7-0.7-1.4-1.5-2.2-2.4c-0.8-0.9-1.9-1.6-2.8-2.5c-1.1-0.7-2.2-1.5-3.5-2.2c-1.3-0.6-2.6-1.2-4-1.5
		c-0.7-0.2-1.4-0.4-2.1-0.5c-0.7-0.1-1.5-0.3-2.2-0.2l-2.2,0c-0.7,0.1-1.5,0.2-2.2,0.3c-1.4,0.2-2.9,0.5-4.2,1
		c-1.4,0.5-2.6,1-3.8,1.6c-1.2,0.6-2.2,1.3-3.2,2c-0.8,0.8-1.8,1.4-2.4,2.1c-0.6,0.7-1.3,1.2-1.7,1.9c-0.9,1.2-1.4,1.8-1.4,1.8
		S544.2,352.5,544.6,351.1 M378.2,323.6c-0.5-0.9-1.1-2.3-2.1-3.9c-0.5-0.8-1.1-1.7-1.7-2.6c-0.7-0.9-1.5-1.8-2.3-2.8
		c-1.7-1.9-3.9-3.7-6.4-5.4c-2.7-1.4-5.7-2.7-9.1-3.3c-3.4-0.6-7.1-0.8-10.9-0.4c-3.8,0.3-7.8,1.2-11.7,2.3c-4,1-7.9,2.6-11.8,4.2
		c-3.9,1.6-7.7,3.5-11.4,5.6c-3.6,2.1-7.2,4.2-10.5,6.5c-3.3,2.3-6.4,4.6-9.2,7c-2.8,2.4-5.3,4.7-7.6,7c-4.4,4.6-7.5,9.1-9.2,12.5
		c-0.8,1.7-1.5,3.1-1.7,4.1c-0.3,1-0.5,1.5-0.5,1.5s0-0.6,0.1-1.6c0-1,0.1-2.6,0.6-4.5c0.5-1.9,1.2-4.3,2.4-6.8
		c1.1-2.6,2.7-5.3,4.7-8.1c1-1.4,2.1-2.8,3.2-4.3c1.2-1.4,2.4-2.8,3.8-4.3c2.7-2.8,5.7-5.7,9.1-8.3c3.3-2.7,6.9-5.3,10.8-7.6
		c3.9-2.3,7.9-4.4,12.1-6.3c4.2-1.7,8.6-3.3,13-4.4c4.4-1.2,9-1.7,13.4-1.8c4.4-0.2,8.8,0.5,12.7,1.6c4,1.1,7.5,3.2,10.3,5.4
		c1.3,1.2,2.6,2.3,3.6,3.6c0.9,1.3,2,2.5,2.6,3.7c0.6,1.3,1.3,2.4,1.8,3.5c0.4,1.1,0.8,2.2,1.1,3.1c0.7,1.9,0.8,3.5,1,4.5
		c0.2,1,0.3,1.6,0.3,1.6S378.6,324.6,378.2,323.6 M470.8,352.8c-0.9-1.4-2.4-2.6-3.7-4.1c-1.4-1.5-3.2-2.8-4.9-4.3
		c-1.9-1.3-3.8-2.9-6-4.2c-1.1-0.7-2.1-1.4-3.2-2.1c-1.2-0.6-2.3-1.2-3.5-1.9c-2.3-1.3-4.8-2.4-7.2-3.5c-2.5-1-5-2.1-7.5-2.9
		c-2.5-0.9-5-1.6-7.4-2.3c-2.4-0.6-4.8-1.1-7.1-1.5c-2.3-0.2-4.5-0.7-6.5-0.7c-2,0-3.9-0.2-5.5,0c-1.6,0.2-3.1,0-4.4,0.4
		c-2.5,0.5-3.9,0.7-3.9,0.7s1.2-0.9,3.3-2.2c1-0.8,2.5-1.3,4.2-2c1.8-0.8,3.7-1.2,6-1.6c2.2-0.6,4.6-0.6,7.2-0.7
		c2.6,0,5.3,0.1,8.1,0.5c2.8,0.5,5.7,0.9,8.5,1.8c2.9,0.7,5.6,1.9,8.4,2.9c2.7,1.3,5.4,2.5,7.9,4.1c2.5,1.5,4.9,3.2,7,5
		c2.3,1.6,4.1,3.8,5.9,5.6c1.6,2,3.2,3.9,4.4,5.8c1.1,2,2.2,3.7,2.8,5.5c0.6,1.8,1.3,3.2,1.3,4.5c0.4,2.6,0.5,4,0.5,4
		s-0.8-1.3-2-3.4C472.9,355.2,471.7,354.1,470.8,352.8 M507.4,344c-1.8,0.1-3.6,0.4-5.4,0.7c-1.7,0.4-3.4,0.7-4.9,1.3
		c-1.6,0.5-2.9,1.1-4.2,1.7c-1.3,0.6-2.3,1.4-3.3,2c-0.8,0.7-1.6,1.4-2.2,1.9c-1,1.4-1.7,2.2-1.7,2.2s0.3-0.9,1-2.6
		c0.5-0.7,1.1-1.6,1.9-2.7c0.9-0.9,1.9-1.9,3.1-2.8c1.3-0.9,2.6-1.9,4.3-2.6c1.6-0.8,3.3-1.4,5.2-2c1.9-0.5,3.8-1,5.8-1.2
		c2-0.2,4.1-0.3,6.2-0.2c2.1,0,4.1,0.6,6.1,1c2,0.7,3.9,1.2,5.6,2.3c0.9,0.5,1.8,0.9,2.5,1.5c0.7,0.6,1.4,1.2,2.1,1.8
		c1.4,1.1,2.3,2.7,3.3,3.8c0.9,1.3,1.4,2.7,1.9,3.8c0.6,1.1,0.7,2.2,0.9,3.1c0.4,1.7,0.5,2.7,0.5,2.7s-0.5-0.9-1.3-2.4
		c-0.4-0.7-0.7-1.7-1.5-2.6c-0.8-0.9-1.4-2-2.4-3c-1.1-0.9-2-2.1-3.4-2.9c-1.3-0.9-2.7-1.8-4.3-2.4c-1.5-0.8-3.3-1.1-5-1.7
		c-1.8-0.3-3.6-0.7-5.4-0.7C511.1,343.8,509.2,343.9,507.4,344 M530.2,331.3c4.5-6.6,18.5-57,21.3-70.7c2.7-13.7,42.5,35,61.7,31.5
		v3.1c-4.6,4.9-40.1-16.4-51.4-21.9c-11.3-5.5-18.2,63.3-22.6,66.1C534.6,342.3,531.2,334.7,530.2,331.3 M446.9,308.6
		c5.1-1.4,6.9-28.1,12-30.2s31.8,47.7,35,55.4l-12.7,7.5c0,0-14.4-46.7-18.7-48.4c-4.3-1.7-9.8,20.2-9.8,20.2
		S446.2,314.1,446.9,308.6"/>
</g>
</svg>
