<?xml version="1.0" encoding="UTF-8" standalone="no"?>
<!-- Created with Inkscape (http://www.inkscape.org/) -->

<svg
   width="7000"
   height="1300"
   viewBox="0 0 1852.0832 343.95834"
   version="1.1"
   id="svg5"
   sodipodi:docname="logo line.svg"
   inkscape:version="1.1.2 (1:1.1+202202050950+0a00cf5339)"
   xmlns:inkscape="http://www.inkscape.org/namespaces/inkscape"
   xmlns:sodipodi="http://sodipodi.sourceforge.net/DTD/sodipodi-0.dtd"
   xmlns="http://www.w3.org/2000/svg"
   xmlns:svg="http://www.w3.org/2000/svg">
  <sodipodi:namedview
     id="namedview7"
     pagecolor="#ffffff"
     bordercolor="#666666"
     borderopacity="1.0"
     inkscape:pageshadow="2"
     inkscape:pageopacity="0.0"
     inkscape:pagecheckerboard="0"
     inkscape:document-units="px"
     showgrid="false"
     units="px"
     width="3000px"
     inkscape:zoom="0.1031894"
     inkscape:cx="4777.6227"
     inkscape:cy="1729.8289"
     inkscape:window-width="1848"
     inkscape:window-height="1016"
     inkscape:window-x="72"
     inkscape:window-y="27"
     inkscape:window-maximized="1"
     inkscape:current-layer="layer5"
     height="1300px" />
  <defs
     id="defs2">
    <inkscape:path-effect
       effect="powerclip"
       id="path-effect8931"
       is_visible="true"
       lpeversion="1"
       inverse="true"
       flatten="false"
       hide_clip="false"
       message="Utilise la règle de remplissage « fill-rule: evenodd » de la boîte de dialogue &lt;b&gt;Fond et contour&lt;/b&gt; en l'absence de résultat de mise à plat après une conversion en chemin." />
    <inkscape:path-effect
       effect="powerclip"
       id="path-effect8927"
       is_visible="true"
       lpeversion="1"
       inverse="true"
       flatten="false"
       hide_clip="false"
       message="Utilise la règle de remplissage « fill-rule: evenodd » de la boîte de dialogue &lt;b&gt;Fond et contour&lt;/b&gt; en l'absence de résultat de mise à plat après une conversion en chemin." />
    <linearGradient
       id="linearGradient7461"
       inkscape:swatch="solid">
      <stop
         style="stop-color:#ffffff;stop-opacity:1;"
         offset="0"
         id="stop7459" />
    </linearGradient>
    <linearGradient
       id="linearGradient3730"
       inkscape:swatch="solid">
      <stop
         style="stop-color:#000000;stop-opacity:1;"
         offset="0"
         id="stop3728" />
    </linearGradient>
    <linearGradient
       id="linearGradient2942"
       inkscape:swatch="solid">
      <stop
         style="stop-color:#000000;stop-opacity:1;"
         offset="0"
         id="stop2940" />
    </linearGradient>
    <clipPath
       clipPathUnits="userSpaceOnUse"
       id="clipPath8919">
      <path
         id="path8921"
         style="display:block;fill:#ff6400;fill-opacity:0.394744;fill-rule:nonzero;stroke:none;stroke-width:2.72388;stroke-miterlimit:4;stroke-dasharray:none;stroke-opacity:1;paint-order:normal"
         d="m -14.522009,562.68 v 37.54499 h -1.101464 v 94.14094 H 810.47494 V 600.22499 H 118.09475 V 562.68 Z" />
    </clipPath>
    <clipPath
       clipPathUnits="userSpaceOnUse"
       id="clipPath8923">
      <path
         id="path8925"
         style="display:block;fill:#ff6400;fill-opacity:0.394744;fill-rule:nonzero;stroke:none;stroke-width:2.61722;stroke-miterlimit:4;stroke-dasharray:none;stroke-opacity:1;paint-order:normal"
         d="m 1.5874997,556.1874 v 36.0748 H 0.52916688 v 90.45456 H 794.27917 V 592.2622 H 129.01124 v -36.0748 z" />
    </clipPath>
  </defs>
  <g
     inkscape:label="Background"
     inkscape:groupmode="layer"
     id="layer1"
     style="display:inline" />
  <g
     inkscape:groupmode="layer"
     id="layer3"
     inkscape:label="Ant">
    <g
       id="g9157"
       transform="matrix(0.76059593,0,0,0.76059593,-5.5929656,-156.42212)">
      <path
         d="M 753.8,556.5 C 718,542.6 686,521.5 689.1,509.3 674.2,491.3 613.7,382.1 613.7,382.1 600,370.9 570.1,407.3 554,416 c -5.7,-4.1 -13.8,-28.4 -14.9,-39.6 -1,-9.7 -14.5,-5.7 -21.8,2.9 -0.3,-0.2 -0.5,-0.4 -0.8,-0.5 5.7,-11.3 23.5,-18.4 24.7,-7.2 0.3,2.9 1.1,6.7 2.1,10.8 1.8,-3.2 3.1,-6.8 3.7,-10.5 4.5,3.8 10.6,6.1 17.3,6.1 11.6,0 21.3,-6.9 24.3,-16.2 4.6,5.3 11.8,8.7 20,8.7 4.2,0 8.2,-0.9 11.7,-2.6 17.3,71.5 70.2,111.4 151.3,102.2 15.4,-6.2 14.5,-14.7 14.5,-14.7 0,0 19.9,-181.3 -154.9,-129.5 l -2.5,9.2 c -4.6,-5.4 -11.9,-8.9 -20.2,-8.9 -11.6,0 -21.3,6.9 -24.3,16.2 -4.6,-5.3 -11.8,-8.7 -20,-8.7 -10.9,0 -20.1,6.1 -23.7,14.5 -6.5,-8.3 -17.2,-13.8 -29.3,-13.8 -12.9,0 -24.2,6.2 -30.6,15.5 -6.7,-13.8 -19.3,-27.9 -33.9,-33.4 -25.9,-9.8 -46.8,-5.3 -57.9,9.8 -2.8,-23.6 -19.3,-44.6 -54.4,-38.4 -29,5.1 -50.6,22.4 -63.3,43.3 -3.9,0.9 -7.8,2.1 -11.7,3.2 -7.9,2.3 -15.8,5 -23.7,6.4 -4,0.7 -7.9,1.1 -11.6,0.6 -1.8,-0.2 -3.5,-0.7 -5,-1.5 -0.7,-0.3 -1.6,-0.9 -2.4,-1.4 l -2.5,-1.6 c -6.7,-4.6 -13.4,-9.3 -20.3,-13.3 -6.9,-4 -14.1,-7.3 -21.2,-9.7 -7.1,-2.4 -14.2,-3.7 -20.8,-4.2 -13.3,-1 -24.4,1.3 -31.8,3.5 -3.7,1.1 -6.6,2.1 -8.5,2.9 -1.9,0.7 -3,1.1 -3,1.1 -0.1,0 -0.2,0.1 -0.3,0.1 -3.1,1.4 -4.5,5.1 -3.1,8.2 1.4,3.1 5.1,4.5 8.2,3.1 l 0.3,-0.1 c 0,0 0.9,-0.4 2.6,-1.2 1.7,-0.8 4.2,-1.8 7.4,-3 6.4,-2.2 16,-4.9 27.7,-4.6 11.7,0.2 25.4,3.6 38.9,10.6 6.8,3.4 13.5,7.6 20.6,11.9 l 2.8,1.6 c 0.9,0.5 1.8,1 3,1.5 2.3,1 4.6,1.5 6.9,1.7 4.6,0.3 9,-0.4 13.2,-1.4 8.4,-2 16.1,-5.1 23.8,-7.8 2.8,-1 5.7,-2 8.5,-2.9 -5.6,10.3 -9.2,21.2 -10.5,32 -0.9,-0.2 -1.8,-0.5 -2.7,-0.7 -1.9,-0.4 -3.8,-0.9 -5.9,-1.2 -2.1,-0.2 -4.3,0.1 -6.3,0.5 -8.2,2 -15.6,6.1 -23.2,9.9 -7.5,3.8 -15.2,7.9 -23.1,10.2 -3.9,1.1 -7.9,1.7 -11.4,0.9 -1.5,-0.4 -3.7,-1.3 -5.6,-2 -2,-0.8 -4,-1.6 -5.9,-2.4 -7.9,-3.2 -15.9,-6.1 -23.9,-8.3 -15.9,-4.5 -31.8,-6 -45.4,-4.4 -13.6,1.4 -24.5,5.6 -31.7,9.1 -3.6,1.8 -6.4,3.3 -8.2,4.5 -1.8,1.1 -2.8,1.7 -2.8,1.7 -0.1,0.1 -0.2,0.1 -0.3,0.2 -2.8,1.9 -3.5,5.8 -1.6,8.6 1.9,2.8 5.8,3.5 8.6,1.6 l 0.3,-0.2 c 0,0 0.8,-0.6 2.4,-1.6 1.5,-1.1 3.9,-2.6 7,-4.3 6.2,-3.4 15.5,-7.6 27.7,-9.5 12.1,-2 26.8,-1.5 42.2,2 7.7,1.7 15.6,4.1 23.5,6.8 2,0.7 4,1.4 6,2.1 2.2,0.7 3.9,1.4 6.6,2 5.1,0.8 9.8,-0.3 14,-1.7 8.6,-3 16,-7.6 23.4,-11.8 7.3,-4.2 14.5,-8.6 22,-10.9 1.9,-0.5 3.7,-0.8 5.6,-0.8 1.9,0.1 3.8,0.6 5.7,0.9 1,0.2 1.9,0.4 2.9,0.6 -1,9.9 0,19.6 3,28.2 0,0 -10.3,31.5 -0.7,50.7 12.2,-16.1 67.4,-39.5 99.5,-62.4 3.9,-7.1 6.4,-11.7 6.4,-11.7 1.2,-2.2 4.8,-2.8 9.8,-2.2 0.5,-0.6 1.1,-1.2 1.6,-1.8 4.3,-5.4 7.5,-12.3 9.4,-19.7 7.4,16 27,36.2 56.4,37.9 -4.8,-9.7 -11.1,-21.8 -10.8,-28.4 0.5,-10.7 27.5,-4.8 31.9,5.7 -9,-7 -27.3,-9.4 -27.7,-0.6 -0.5,11.2 18.3,38.6 15.8,42.7 -7.2,-8.7 -75.9,-39.7 -82.1,-28.5 0,0 -44.7,80.7 -51.4,98.7 1.5,13 -12.2,33.9 -26,47.5 -5.3,5.3 -10.7,9.5 -15.2,11.6 34.5,-2.1 48.2,-46.7 48.2,-55.9 32.3,-33 44.2,-83.9 52.6,-90.7 25.2,11.4 77.4,33.7 87.9,28.4 7.9,-4 3.7,-20.9 1.9,-33.5 2.8,-0.8 5.8,-1.8 8.7,-2.9 0.4,-0.2 0.8,-0.3 1.1,-0.5 1.6,3 3.7,5.8 6.2,8.3 -1,-6.2 -1.7,-11.6 -1.6,-14.9 0.4,-9.3 14.3,-0.7 20.5,9 -6.8,-8.2 -17.8,-14.1 -18.1,-5.8 -0.5,11.2 9.2,47.8 6.6,51.9 -7.2,-8.7 -27.3,-12.2 -33.4,-1 0,0 -12.3,68.9 -19,86.9 1.8,15.8 -5.5,67.5 -18.2,84.9 -1.7,2.4 -3.5,4.1 -5.5,5.1 34.5,-2.1 29.3,-73.5 29.3,-82.8 21.6,-19 15.9,-72.1 19.5,-84.3 27,1 24.7,14.4 35.2,9.1 9.5,-4.8 5.4,-33.6 6.6,-47.9 1.5,0.2 2.9,0.3 4.4,0.3 4.7,0 9.1,-0.8 13.2,-2.3 5.1,11.1 10.6,24.6 27.2,28.3 23.5,5.3 12.5,-24.7 56.7,-31.2 30.7,38.7 39.9,90.8 66.7,117.6 0,9.3 52.5,55.2 129.2,57.3 -15.4,-1.6 -33.4,-6.7 -50.5,-13.3 M 661.4,326.9 c 2.9,-0.8 6.5,-1.2 10.7,-1.9 4.2,-0.7 8.9,-0.8 14.1,-1.1 2.6,0.1 5.3,0.1 8.2,0.2 2.8,0.2 5.7,0.7 8.7,1 3,0.4 6,1.2 9.1,1.9 3.1,0.8 6.2,1.9 9.3,3 6.1,2.6 12.5,5.5 18.1,9.8 3,1.9 5.5,4.4 8.2,6.7 2.5,2.5 5.2,4.9 7.3,7.7 4.7,5.4 8.4,11.5 11.8,17.5 3.4,6.1 5.7,12.5 7.9,18.6 4.1,12.5 6.1,24.5 6.9,34.8 0.9,10.3 0.4,19 -0.2,25 -0.6,6 -1.7,9.3 -1.7,9.3 0,0 0.4,-3.4 0.1,-9.3 -0.3,-5.9 -1.1,-14.4 -2.8,-24.3 -1.8,-9.9 -4.6,-21.4 -9,-33 -2.3,-5.8 -4.9,-11.6 -8.1,-17.3 -3.2,-5.6 -6.8,-11.1 -11.1,-16 -2,-2.6 -4.4,-4.8 -6.6,-7.1 -2.5,-2.1 -4.7,-4.4 -7.4,-6.2 -5,-3.9 -10.6,-6.9 -16.1,-9.5 -2.9,-1.1 -5.6,-2.2 -8.4,-3.2 -2.9,-0.8 -5.6,-1.8 -8.4,-2.3 -2.8,-0.5 -5.5,-1.1 -8.1,-1.5 -2.7,-0.3 -5.3,-0.6 -7.7,-0.9 -2.5,-0.2 -4.9,-0.2 -7.2,-0.4 -2.3,-0.1 -4.5,-0.2 -6.5,-0.1 -4.1,0.2 -7.7,0 -10.7,0.3 -6,0.4 -9.4,0.7 -9.4,0.7 0,0 3.2,-0.9 9,-2.4 m -72.5,16 c 0.2,-0.7 0.9,-1.4 1.5,-2.4 0.6,-1 1.6,-1.7 2.6,-2.6 1,-0.8 2.3,-1.6 3.6,-2.3 1.4,-0.6 2.8,-1.4 4.4,-1.8 3.2,-1.1 6.8,-1.4 10.3,-1.3 1.8,0.2 3.6,0.4 5.3,0.9 1.8,0.3 3.3,1.3 4.9,1.9 1.4,1 2.9,1.8 3.9,3.1 0.5,0.6 1.1,1.1 1.5,1.8 0.4,0.7 0.7,1.3 1,1.9 0.8,1.2 0.8,2.5 1.1,3.5 0.3,1 0.2,2 0.2,2.8 -0.1,1.5 -0.2,2.3 -0.2,2.3 0,0 -0.2,-0.8 -0.6,-2.2 -0.2,-0.7 -0.3,-1.5 -0.9,-2.4 -0.5,-0.8 -0.8,-1.9 -1.6,-2.8 -0.7,-0.9 -1.5,-1.9 -2.6,-2.6 -0.9,-0.9 -2.3,-1.4 -3.4,-2.1 -1.4,-0.4 -2.7,-1.1 -4.2,-1.3 -1.5,-0.4 -3,-0.5 -4.6,-0.6 -1.5,-0.1 -3.1,-0.1 -4.7,0 -1.5,0.2 -3.1,0.3 -4.5,0.6 -2.9,0.5 -5.5,1.5 -7.7,2.6 -0.9,0.7 -2.1,1.1 -2.7,1.7 -0.7,0.6 -1.5,1.1 -1.9,1.7 -0.9,1.2 -1.5,1.8 -1.5,1.8 0,0 0.3,-0.8 0.8,-2.2 m -44.3,8.2 c 0.2,-0.7 0.7,-1.5 1.2,-2.4 0.5,-1 1.3,-1.8 2.1,-2.9 0.9,-0.9 1.9,-2 3.1,-2.8 0.6,-0.4 1.3,-0.9 1.9,-1.3 0.7,-0.4 1.4,-0.7 2.2,-1.1 0.7,-0.4 1.5,-0.6 2.4,-0.9 0.8,-0.3 1.6,-0.6 2.5,-0.7 0.9,-0.1 1.7,-0.3 2.6,-0.4 l 2.7,-0.1 c 0.9,0 1.8,0.2 2.7,0.3 0.9,0.1 1.8,0.3 2.6,0.6 1.7,0.4 3.3,1.4 4.7,2.2 1.4,0.9 2.6,2 3.7,3 1,1.2 1.9,2.2 2.6,3.3 0.7,1.1 1.2,2.2 1.7,3.1 0.2,0.4 0.3,0.8 0.5,1.2 0.2,0.5 0.3,0.9 0.4,1.3 0.4,1.2 0.6,1.9 0.6,2.1 0,0 0,0.1 0,0.1 0,0 -0.5,-0.7 -1.4,-1.8 -0.4,-0.6 -0.9,-1.3 -1.5,-2.1 -0.7,-0.7 -1.4,-1.5 -2.2,-2.4 -0.8,-0.9 -1.9,-1.6 -2.8,-2.5 -1.1,-0.7 -2.2,-1.5 -3.5,-2.2 -1.3,-0.6 -2.6,-1.2 -4,-1.5 -0.7,-0.2 -1.4,-0.4 -2.1,-0.5 -0.7,-0.1 -1.5,-0.3 -2.2,-0.2 h -2.2 c -0.7,0.1 -1.5,0.2 -2.2,0.3 -1.4,0.2 -2.9,0.5 -4.2,1 -1.4,0.5 -2.6,1 -3.8,1.6 -1.2,0.6 -2.2,1.3 -3.2,2 -0.8,0.8 -1.8,1.4 -2.4,2.1 -0.6,0.7 -1.3,1.2 -1.7,1.9 -0.9,1.2 -1.4,1.8 -1.4,1.8 0,0 0.2,-0.7 0.6,-2.1 M 378.2,323.6 c -0.5,-0.9 -1.1,-2.3 -2.1,-3.9 -0.5,-0.8 -1.1,-1.7 -1.7,-2.6 -0.7,-0.9 -1.5,-1.8 -2.3,-2.8 -1.7,-1.9 -3.9,-3.7 -6.4,-5.4 -2.7,-1.4 -5.7,-2.7 -9.1,-3.3 -3.4,-0.6 -7.1,-0.8 -10.9,-0.4 -3.8,0.3 -7.8,1.2 -11.7,2.3 -4,1 -7.9,2.6 -11.8,4.2 -3.9,1.6 -7.7,3.5 -11.4,5.6 -3.6,2.1 -7.2,4.2 -10.5,6.5 -3.3,2.3 -6.4,4.6 -9.2,7 -2.8,2.4 -5.3,4.7 -7.6,7 -4.4,4.6 -7.5,9.1 -9.2,12.5 -0.8,1.7 -1.5,3.1 -1.7,4.1 -0.3,1 -0.5,1.5 -0.5,1.5 0,0 0,-0.6 0.1,-1.6 0,-1 0.1,-2.6 0.6,-4.5 0.5,-1.9 1.2,-4.3 2.4,-6.8 1.1,-2.6 2.7,-5.3 4.7,-8.1 1,-1.4 2.1,-2.8 3.2,-4.3 1.2,-1.4 2.4,-2.8 3.8,-4.3 2.7,-2.8 5.7,-5.7 9.1,-8.3 3.3,-2.7 6.9,-5.3 10.8,-7.6 3.9,-2.3 7.9,-4.4 12.1,-6.3 4.2,-1.7 8.6,-3.3 13,-4.4 4.4,-1.2 9,-1.7 13.4,-1.8 4.4,-0.2 8.8,0.5 12.7,1.6 4,1.1 7.5,3.2 10.3,5.4 1.3,1.2 2.6,2.3 3.6,3.6 0.9,1.3 2,2.5 2.6,3.7 0.6,1.3 1.3,2.4 1.8,3.5 0.4,1.1 0.8,2.2 1.1,3.1 0.7,1.9 0.8,3.5 1,4.5 0.2,1 0.3,1.6 0.3,1.6 0,0 -0.1,-0.3 -0.5,-1.3 m 92.6,29.2 c -0.9,-1.4 -2.4,-2.6 -3.7,-4.1 -1.4,-1.5 -3.2,-2.8 -4.9,-4.3 -1.9,-1.3 -3.8,-2.9 -6,-4.2 -1.1,-0.7 -2.1,-1.4 -3.2,-2.1 -1.2,-0.6 -2.3,-1.2 -3.5,-1.9 -2.3,-1.3 -4.8,-2.4 -7.2,-3.5 -2.5,-1 -5,-2.1 -7.5,-2.9 -2.5,-0.9 -5,-1.6 -7.4,-2.3 -2.4,-0.6 -4.8,-1.1 -7.1,-1.5 -2.3,-0.2 -4.5,-0.7 -6.5,-0.7 -2,0 -3.9,-0.2 -5.5,0 -1.6,0.2 -3.1,0 -4.4,0.4 -2.5,0.5 -3.9,0.7 -3.9,0.7 0,0 1.2,-0.9 3.3,-2.2 1,-0.8 2.5,-1.3 4.2,-2 1.8,-0.8 3.7,-1.2 6,-1.6 2.2,-0.6 4.6,-0.6 7.2,-0.7 2.6,0 5.3,0.1 8.1,0.5 2.8,0.5 5.7,0.9 8.5,1.8 2.9,0.7 5.6,1.9 8.4,2.9 2.7,1.3 5.4,2.5 7.9,4.1 2.5,1.5 4.9,3.2 7,5 2.3,1.6 4.1,3.8 5.9,5.6 1.6,2 3.2,3.9 4.4,5.8 1.1,2 2.2,3.7 2.8,5.5 0.6,1.8 1.3,3.2 1.3,4.5 0.4,2.6 0.5,4 0.5,4 0,0 -0.8,-1.3 -2,-3.4 -0.6,-1 -1.8,-2.1 -2.7,-3.4 m 36.6,-8.8 c -1.8,0.1 -3.6,0.4 -5.4,0.7 -1.7,0.4 -3.4,0.7 -4.9,1.3 -1.6,0.5 -2.9,1.1 -4.2,1.7 -1.3,0.6 -2.3,1.4 -3.3,2 -0.8,0.7 -1.6,1.4 -2.2,1.9 -1,1.4 -1.7,2.2 -1.7,2.2 0,0 0.3,-0.9 1,-2.6 0.5,-0.7 1.1,-1.6 1.9,-2.7 0.9,-0.9 1.9,-1.9 3.1,-2.8 1.3,-0.9 2.6,-1.9 4.3,-2.6 1.6,-0.8 3.3,-1.4 5.2,-2 1.9,-0.5 3.8,-1 5.8,-1.2 2,-0.2 4.1,-0.3 6.2,-0.2 2.1,0 4.1,0.6 6.1,1 2,0.7 3.9,1.2 5.6,2.3 0.9,0.5 1.8,0.9 2.5,1.5 0.7,0.6 1.4,1.2 2.1,1.8 1.4,1.1 2.3,2.7 3.3,3.8 0.9,1.3 1.4,2.7 1.9,3.8 0.6,1.1 0.7,2.2 0.9,3.1 0.4,1.7 0.5,2.7 0.5,2.7 0,0 -0.5,-0.9 -1.3,-2.4 -0.4,-0.7 -0.7,-1.7 -1.5,-2.6 -0.8,-0.9 -1.4,-2 -2.4,-3 -1.1,-0.9 -2,-2.1 -3.4,-2.9 -1.3,-0.9 -2.7,-1.8 -4.3,-2.4 -1.5,-0.8 -3.3,-1.1 -5,-1.7 -1.8,-0.3 -3.6,-0.7 -5.4,-0.7 -1.7,-0.2 -3.6,-0.1 -5.4,0 m 22.8,-12.7 c 4.5,-6.6 18.5,-57 21.3,-70.7 2.7,-13.7 42.5,35 61.7,31.5 v 3.1 c -4.6,4.9 -40.1,-16.4 -51.4,-21.9 -11.3,-5.5 -18.2,63.3 -22.6,66.1 -4.6,2.9 -8,-4.7 -9,-8.1 m -83.3,-22.7 c 5.1,-1.4 6.9,-28.1 12,-30.2 5.1,-2.1 31.8,47.7 35,55.4 l -12.7,7.5 c 0,0 -14.4,-46.7 -18.7,-48.4 -4.3,-1.7 -9.8,20.2 -9.8,20.2 0,0 -6.5,1 -5.8,-4.5"
         id="path9155" />
      <path
         style="fill:#ff6400;fill-opacity:1;stroke-width:47.9436"
         d="m 1827.8154,531.15872 c -6.9905,0.33328 -7.2421,9.3849 -9.113,14.37558 -13.9735,55.9966 -29.0046,111.8559 -48.4071,166.21366 -1.7363,6.31609 -6.6006,12.18235 -6.4677,18.91973 3.33,8.73153 7.8504,20.00674 18.1342,22.00536 8.4639,0.50724 11.0083,-9.49245 12.5547,-15.96803 11.8731,-47.0652 17.7204,-95.791 34.0171,-141.56033 3.6357,-8.02878 6.5924,-18.4881 15.4796,-22.08029 7.3598,0.17555 13.3582,6.05641 20.0673,8.66222 33.6688,17.35311 66.4985,36.87195 102.1982,49.86079 6.627,1.77469 15.3914,5.26867 21.2319,0.0562 1.3251,-3.4535 2.2244,-11.07627 -3.6051,-9.3977 -19.3657,0.68099 -36.6725,-10.02565 -52.4408,-20.07651 -29.6097,-19.61072 -55.9856,-43.94109 -85.6326,-63.60898 -5.5848,-3.12557 -11.4199,-7.12591 -18.0167,-7.40169 z"
         id="path9711"
         transform="matrix(0.37238356,0,0,0.37238356,-126.6589,60.042023)" />
      <path
         style="fill:#ff6400;fill-opacity:1;stroke-width:47.9436"
         d="m 1573.3623,585.43797 c -6.8017,2.54637 -8.639,11.10566 -11.1154,17.16274 -6.609,19.6047 -8.8521,40.74901 -17.8661,59.44773 -2.7645,3.40728 -7.1241,7.5739 -4.0378,12.36046 2.8582,4.99506 10.9807,8.73495 15.9413,4.98163 5.7003,-15.61593 9.1557,-32.40435 17.7811,-46.84549 1.8713,-2.69324 5.9676,-9.12879 9.4138,-4.62644 9.5667,13.93361 14.2846,30.56639 20.5252,46.13506 9.9462,26.71587 18.3488,54.00593 27.5869,80.95289 4.1847,1.41653 7.9661,-4.11474 11.9367,-5.29111 7.7327,-4.96147 16.4524,-8.89305 23.5191,-14.56801 -7.9352,-20.07207 -19.5951,-38.57361 -29.7326,-57.62779 -17.2593,-29.80713 -33.1577,-60.97603 -56.0958,-86.94647 -2.24,-2.01175 -4.5973,-5.08684 -7.8564,-5.1352 z"
         id="path9750"
         transform="matrix(0.37238356,0,0,0.37238356,-126.6589,60.042023)" />
    </g>
    <rect
       style="fill:#ff6400;fill-opacity:0.999538;stroke-width:4.11044"
       id="rect1049"
       width="13.229167"
       height="264.58334"
       x="661.45831"
       y="34.395832" />
    <rect
       style="fill:#ff6400;fill-opacity:0.999538;stroke-width:2.59967"
       id="rect1049-1"
       width="5.2916665"
       height="264.58334"
       x="682.625"
       y="34.395832" />
  </g>
  <g
     inkscape:groupmode="layer"
     id="layer4"
     inkscape:label="Text 1"
     style="display:inline">
    <text
       xml:space="preserve"
       style="font-style:normal;font-variant:normal;font-weight:normal;font-stretch:normal;font-size:141.111px;line-height:1.25;font-family:Akbaal;-inkscape-font-specification:'Akbaal, Normal';font-variant-ligatures:normal;font-variant-caps:normal;font-variant-numeric:normal;font-variant-east-asian:normal;fill:#ff6400;fill-opacity:1;stroke:none;stroke-width:2.95007"
       x="743.60168"
       y="241.97021"
       id="text5740"><tspan
         sodipodi:role="line"
         id="tspan5738"
         style="font-style:normal;font-variant:normal;font-weight:normal;font-stretch:normal;font-size:141.111px;font-family:Akbaal;-inkscape-font-specification:'Akbaal, Normal';font-variant-ligatures:normal;font-variant-caps:normal;font-variant-numeric:normal;font-variant-east-asian:normal;fill:#ff6400;fill-opacity:1;stroke-width:2.95007"
         x="743.60168"
         y="241.97021">FC</tspan></text>
  </g>
  <g
     inkscape:groupmode="layer"
     id="layer5"
     inkscape:label="Text 2"
     style="display:inline">
    <text
       xml:space="preserve"
       style="font-style:normal;font-variant:normal;font-weight:normal;font-stretch:normal;font-size:105.833px;line-height:1.25;font-family:Akbaal;-inkscape-font-specification:'Akbaal, Normal';font-variant-ligatures:normal;font-variant-caps:normal;font-variant-numeric:normal;font-variant-east-asian:normal;fill:#000000;fill-opacity:1;stroke:none;stroke-width:3.584;stroke-miterlimit:4;stroke-dasharray:none;paint-order:normal"
       x="1066.8073"
       y="242.39803"
       id="text17888"><tspan
         sodipodi:role="line"
         id="tspan959"
         x="1066.8073"
         y="242.39803">Consulting</tspan></text>
  </g>
</svg>
