<?xml version="1.0" encoding="UTF-8" standalone="no"?>
<svg
   width="7e3"
   height="1300"
   version="1.1"
   viewBox="0 0 1852.1 343.96"
   id="svg26"
   sodipodi:docname="logo_line.svg"
   inkscape:export-filename="/home/florent/Workspace/sources/perso/FC Consulting/logo/logo_line.png"
   inkscape:export-xdpi="96"
   inkscape:export-ydpi="96"
   inkscape:version="1.1.2 (1:1.1+202202050950+0a00cf5339)"
   xmlns:inkscape="http://www.inkscape.org/namespaces/inkscape"
   xmlns:sodipodi="http://sodipodi.sourceforge.net/DTD/sodipodi-0.dtd"
   xmlns="http://www.w3.org/2000/svg"
   xmlns:svg="http://www.w3.org/2000/svg">
  <defs
     id="defs30" />
  <sodipodi:namedview
     id="namedview28"
     pagecolor="#ffffff"
     bordercolor="#666666"
     borderopacity="1.0"
     inkscape:pageshadow="2"
     inkscape:pageopacity="0.0"
     inkscape:pagecheckerboard="0"
     showgrid="false"
     inkscape:zoom="0.19228571"
     inkscape:cx="3408.9896"
     inkscape:cy="647.474"
     inkscape:window-width="1848"
     inkscape:window-height="1016"
     inkscape:window-x="72"
     inkscape:window-y="27"
     inkscape:window-maximized="1"
     inkscape:current-layer="svg26" />
  <g
     transform="matrix(0.7606,0,0,0.7606,-5.593,-156.42)"
     id="g8">
    <path
       d="M 753.8,556.5 C 718,542.6 686,521.5 689.1,509.3 674.2,491.3 613.7,382.1 613.7,382.1 600,370.9 570.1,407.3 554,416 c -5.7,-4.1 -13.8,-28.4 -14.9,-39.6 -1,-9.7 -14.5,-5.7 -21.8,2.9 -0.3,-0.2 -0.5,-0.4 -0.8,-0.5 5.7,-11.3 23.5,-18.4 24.7,-7.2 0.3,2.9 1.1,6.7 2.1,10.8 1.8,-3.2 3.1,-6.8 3.7,-10.5 4.5,3.8 10.6,6.1 17.3,6.1 11.6,0 21.3,-6.9 24.3,-16.2 4.6,5.3 11.8,8.7 20,8.7 4.2,0 8.2,-0.9 11.7,-2.6 17.3,71.5 70.2,111.4 151.3,102.2 15.4,-6.2 14.5,-14.7 14.5,-14.7 0,0 19.9,-181.3 -154.9,-129.5 l -2.5,9.2 c -4.6,-5.4 -11.9,-8.9 -20.2,-8.9 -11.6,0 -21.3,6.9 -24.3,16.2 -4.6,-5.3 -11.8,-8.7 -20,-8.7 -10.9,0 -20.1,6.1 -23.7,14.5 -6.5,-8.3 -17.2,-13.8 -29.3,-13.8 -12.9,0 -24.2,6.2 -30.6,15.5 -6.7,-13.8 -19.3,-27.9 -33.9,-33.4 -25.9,-9.8 -46.8,-5.3 -57.9,9.8 -2.8,-23.6 -19.3,-44.6 -54.4,-38.4 -29,5.1 -50.6,22.4 -63.3,43.3 -3.9,0.9 -7.8,2.1 -11.7,3.2 -7.9,2.3 -15.8,5 -23.7,6.4 -4,0.7 -7.9,1.1 -11.6,0.6 -1.8,-0.2 -3.5,-0.7 -5,-1.5 -0.7,-0.3 -1.6,-0.9 -2.4,-1.4 l -2.5,-1.6 c -6.7,-4.6 -13.4,-9.3 -20.3,-13.3 -6.9,-4 -14.1,-7.3 -21.2,-9.7 -7.1,-2.4 -14.2,-3.7 -20.8,-4.2 -13.3,-1 -24.4,1.3 -31.8,3.5 -3.7,1.1 -6.6,2.1 -8.5,2.9 -1.9,0.7 -3,1.1 -3,1.1 -0.1,0 -0.2,0.1 -0.3,0.1 -3.1,1.4 -4.5,5.1 -3.1,8.2 1.4,3.1 5.1,4.5 8.2,3.1 l 0.3,-0.1 c 0,0 0.9,-0.4 2.6,-1.2 1.7,-0.8 4.2,-1.8 7.4,-3 6.4,-2.2 16,-4.9 27.7,-4.6 11.7,0.2 25.4,3.6 38.9,10.6 6.8,3.4 13.5,7.6 20.6,11.9 l 2.8,1.6 c 0.9,0.5 1.8,1 3,1.5 2.3,1 4.6,1.5 6.9,1.7 4.6,0.3 9,-0.4 13.2,-1.4 8.4,-2 16.1,-5.1 23.8,-7.8 2.8,-1 5.7,-2 8.5,-2.9 -5.6,10.3 -9.2,21.2 -10.5,32 -0.9,-0.2 -1.8,-0.5 -2.7,-0.7 -1.9,-0.4 -3.8,-0.9 -5.9,-1.2 -2.1,-0.2 -4.3,0.1 -6.3,0.5 -8.2,2 -15.6,6.1 -23.2,9.9 -7.5,3.8 -15.2,7.9 -23.1,10.2 -3.9,1.1 -7.9,1.7 -11.4,0.9 -1.5,-0.4 -3.7,-1.3 -5.6,-2 -2,-0.8 -4,-1.6 -5.9,-2.4 -7.9,-3.2 -15.9,-6.1 -23.9,-8.3 -15.9,-4.5 -31.8,-6 -45.4,-4.4 -13.6,1.4 -24.5,5.6 -31.7,9.1 -3.6,1.8 -6.4,3.3 -8.2,4.5 -1.8,1.1 -2.8,1.7 -2.8,1.7 -0.1,0.1 -0.2,0.1 -0.3,0.2 -2.8,1.9 -3.5,5.8 -1.6,8.6 1.9,2.8 5.8,3.5 8.6,1.6 l 0.3,-0.2 c 0,0 0.8,-0.6 2.4,-1.6 1.5,-1.1 3.9,-2.6 7,-4.3 6.2,-3.4 15.5,-7.6 27.7,-9.5 12.1,-2 26.8,-1.5 42.2,2 7.7,1.7 15.6,4.1 23.5,6.8 l 6,2.1 c 2.2,0.7 3.9,1.4 6.6,2 5.1,0.8 9.8,-0.3 14,-1.7 8.6,-3 16,-7.6 23.4,-11.8 7.3,-4.2 14.5,-8.6 22,-10.9 1.9,-0.5 3.7,-0.8 5.6,-0.8 1.9,0.1 3.8,0.6 5.7,0.9 1,0.2 1.9,0.4 2.9,0.6 -1,9.9 0,19.6 3,28.2 0,0 -10.3,31.5 -0.7,50.7 12.2,-16.1 67.4,-39.5 99.5,-62.4 3.9,-7.1 6.4,-11.7 6.4,-11.7 1.2,-2.2 4.8,-2.8 9.8,-2.2 0.5,-0.6 1.1,-1.2 1.6,-1.8 4.3,-5.4 7.5,-12.3 9.4,-19.7 7.4,16 27,36.2 56.4,37.9 -4.8,-9.7 -11.1,-21.8 -10.8,-28.4 0.5,-10.7 27.5,-4.8 31.9,5.7 -9,-7 -27.3,-9.4 -27.7,-0.6 -0.5,11.2 18.3,38.6 15.8,42.7 -7.2,-8.7 -75.9,-39.7 -82.1,-28.5 0,0 -44.7,80.7 -51.4,98.7 1.5,13 -12.2,33.9 -26,47.5 -5.3,5.3 -10.7,9.5 -15.2,11.6 34.5,-2.1 48.2,-46.7 48.2,-55.9 32.3,-33 44.2,-83.9 52.6,-90.7 25.2,11.4 77.4,33.7 87.9,28.4 7.9,-4 3.7,-20.9 1.9,-33.5 2.8,-0.8 5.8,-1.8 8.7,-2.9 0.4,-0.2 0.8,-0.3 1.1,-0.5 1.6,3 3.7,5.8 6.2,8.3 -1,-6.2 -1.7,-11.6 -1.6,-14.9 0.4,-9.3 14.3,-0.7 20.5,9 -6.8,-8.2 -17.8,-14.1 -18.1,-5.8 -0.5,11.2 9.2,47.8 6.6,51.9 -7.2,-8.7 -27.3,-12.2 -33.4,-1 0,0 -12.3,68.9 -19,86.9 1.8,15.8 -5.5,67.5 -18.2,84.9 -1.7,2.4 -3.5,4.1 -5.5,5.1 34.5,-2.1 29.3,-73.5 29.3,-82.8 21.6,-19 15.9,-72.1 19.5,-84.3 27,1 24.7,14.4 35.2,9.1 9.5,-4.8 5.4,-33.6 6.6,-47.9 1.5,0.2 2.9,0.3 4.4,0.3 4.7,0 9.1,-0.8 13.2,-2.3 5.1,11.1 10.6,24.6 27.2,28.3 23.5,5.3 12.5,-24.7 56.7,-31.2 30.7,38.7 39.9,90.8 66.7,117.6 0,9.3 52.5,55.2 129.2,57.3 -15.4,-1.6 -33.4,-6.7 -50.5,-13.3 M 661.4,326.9 c 2.9,-0.8 6.5,-1.2 10.7,-1.9 4.2,-0.7 8.9,-0.8 14.1,-1.1 2.6,0.1 5.3,0.1 8.2,0.2 2.8,0.2 5.7,0.7 8.7,1 3,0.4 6,1.2 9.1,1.9 3.1,0.8 6.2,1.9 9.3,3 6.1,2.6 12.5,5.5 18.1,9.8 3,1.9 5.5,4.4 8.2,6.7 2.5,2.5 5.2,4.9 7.3,7.7 4.7,5.4 8.4,11.5 11.8,17.5 3.4,6.1 5.7,12.5 7.9,18.6 4.1,12.5 6.1,24.5 6.9,34.8 0.9,10.3 0.4,19 -0.2,25 -0.6,6 -1.7,9.3 -1.7,9.3 0,0 0.4,-3.4 0.1,-9.3 -0.3,-5.9 -1.1,-14.4 -2.8,-24.3 -1.8,-9.9 -4.6,-21.4 -9,-33 -2.3,-5.8 -4.9,-11.6 -8.1,-17.3 -3.2,-5.6 -6.8,-11.1 -11.1,-16 -2,-2.6 -4.4,-4.8 -6.6,-7.1 -2.5,-2.1 -4.7,-4.4 -7.4,-6.2 -5,-3.9 -10.6,-6.9 -16.1,-9.5 -2.9,-1.1 -5.6,-2.2 -8.4,-3.2 -2.9,-0.8 -5.6,-1.8 -8.4,-2.3 -2.8,-0.5 -5.5,-1.1 -8.1,-1.5 -2.7,-0.3 -5.3,-0.6 -7.7,-0.9 -2.5,-0.2 -4.9,-0.2 -7.2,-0.4 -2.3,-0.1 -4.5,-0.2 -6.5,-0.1 -4.1,0.2 -7.7,0 -10.7,0.3 -6,0.4 -9.4,0.7 -9.4,0.7 0,0 3.2,-0.9 9,-2.4 m -72.5,16 c 0.2,-0.7 0.9,-1.4 1.5,-2.4 0.6,-1 1.6,-1.7 2.6,-2.6 1,-0.8 2.3,-1.6 3.6,-2.3 1.4,-0.6 2.8,-1.4 4.4,-1.8 3.2,-1.1 6.8,-1.4 10.3,-1.3 1.8,0.2 3.6,0.4 5.3,0.9 1.8,0.3 3.3,1.3 4.9,1.9 1.4,1 2.9,1.8 3.9,3.1 0.5,0.6 1.1,1.1 1.5,1.8 0.4,0.7 0.7,1.3 1,1.9 0.8,1.2 0.8,2.5 1.1,3.5 0.3,1 0.2,2 0.2,2.8 -0.1,1.5 -0.2,2.3 -0.2,2.3 0,0 -0.2,-0.8 -0.6,-2.2 -0.2,-0.7 -0.3,-1.5 -0.9,-2.4 -0.5,-0.8 -0.8,-1.9 -1.6,-2.8 -0.7,-0.9 -1.5,-1.9 -2.6,-2.6 -0.9,-0.9 -2.3,-1.4 -3.4,-2.1 -1.4,-0.4 -2.7,-1.1 -4.2,-1.3 -1.5,-0.4 -3,-0.5 -4.6,-0.6 -1.5,-0.1 -3.1,-0.1 -4.7,0 -1.5,0.2 -3.1,0.3 -4.5,0.6 -2.9,0.5 -5.5,1.5 -7.7,2.6 -0.9,0.7 -2.1,1.1 -2.7,1.7 -0.7,0.6 -1.5,1.1 -1.9,1.7 -0.9,1.2 -1.5,1.8 -1.5,1.8 0,0 0.3,-0.8 0.8,-2.2 m -44.3,8.2 c 0.2,-0.7 0.7,-1.5 1.2,-2.4 0.5,-1 1.3,-1.8 2.1,-2.9 0.9,-0.9 1.9,-2 3.1,-2.8 0.6,-0.4 1.3,-0.9 1.9,-1.3 0.7,-0.4 1.4,-0.7 2.2,-1.1 0.7,-0.4 1.5,-0.6 2.4,-0.9 0.8,-0.3 1.6,-0.6 2.5,-0.7 0.9,-0.1 1.7,-0.3 2.6,-0.4 l 2.7,-0.1 c 0.9,0 1.8,0.2 2.7,0.3 0.9,0.1 1.8,0.3 2.6,0.6 1.7,0.4 3.3,1.4 4.7,2.2 1.4,0.9 2.6,2 3.7,3 1,1.2 1.9,2.2 2.6,3.3 0.7,1.1 1.2,2.2 1.7,3.1 0.2,0.4 0.3,0.8 0.5,1.2 0.2,0.5 0.3,0.9 0.4,1.3 0.4,1.2 0.6,1.9 0.6,2.1 v 0.1 c 0,0 -0.5,-0.7 -1.4,-1.8 -0.4,-0.6 -0.9,-1.3 -1.5,-2.1 -0.7,-0.7 -1.4,-1.5 -2.2,-2.4 -0.8,-0.9 -1.9,-1.6 -2.8,-2.5 -1.1,-0.7 -2.2,-1.5 -3.5,-2.2 -1.3,-0.6 -2.6,-1.2 -4,-1.5 -0.7,-0.2 -1.4,-0.4 -2.1,-0.5 -0.7,-0.1 -1.5,-0.3 -2.2,-0.2 h -2.2 c -0.7,0.1 -1.5,0.2 -2.2,0.3 -1.4,0.2 -2.9,0.5 -4.2,1 -1.4,0.5 -2.6,1 -3.8,1.6 -1.2,0.6 -2.2,1.3 -3.2,2 -0.8,0.8 -1.8,1.4 -2.4,2.1 -0.6,0.7 -1.3,1.2 -1.7,1.9 -0.9,1.2 -1.4,1.8 -1.4,1.8 l 0.6,-2.1 M 378.2,323.6 c -0.5,-0.9 -1.1,-2.3 -2.1,-3.9 -0.5,-0.8 -1.1,-1.7 -1.7,-2.6 -0.7,-0.9 -1.5,-1.8 -2.3,-2.8 -1.7,-1.9 -3.9,-3.7 -6.4,-5.4 -2.7,-1.4 -5.7,-2.7 -9.1,-3.3 -3.4,-0.6 -7.1,-0.8 -10.9,-0.4 -3.8,0.3 -7.8,1.2 -11.7,2.3 -4,1 -7.9,2.6 -11.8,4.2 -3.9,1.6 -7.7,3.5 -11.4,5.6 -3.6,2.1 -7.2,4.2 -10.5,6.5 -3.3,2.3 -6.4,4.6 -9.2,7 -2.8,2.4 -5.3,4.7 -7.6,7 -4.4,4.6 -7.5,9.1 -9.2,12.5 -0.8,1.7 -1.5,3.1 -1.7,4.1 -0.3,1 -0.5,1.5 -0.5,1.5 0,0 0,-0.6 0.1,-1.6 0,-1 0.1,-2.6 0.6,-4.5 0.5,-1.9 1.2,-4.3 2.4,-6.8 1.1,-2.6 2.7,-5.3 4.7,-8.1 1,-1.4 2.1,-2.8 3.2,-4.3 1.2,-1.4 2.4,-2.8 3.8,-4.3 2.7,-2.8 5.7,-5.7 9.1,-8.3 3.3,-2.7 6.9,-5.3 10.8,-7.6 3.9,-2.3 7.9,-4.4 12.1,-6.3 4.2,-1.7 8.6,-3.3 13,-4.4 4.4,-1.2 9,-1.7 13.4,-1.8 4.4,-0.2 8.8,0.5 12.7,1.6 4,1.1 7.5,3.2 10.3,5.4 1.3,1.2 2.6,2.3 3.6,3.6 0.9,1.3 2,2.5 2.6,3.7 0.6,1.3 1.3,2.4 1.8,3.5 0.4,1.1 0.8,2.2 1.1,3.1 0.7,1.9 0.8,3.5 1,4.5 0.2,1 0.3,1.6 0.3,1.6 0,0 -0.1,-0.3 -0.5,-1.3 m 92.6,29.2 c -0.9,-1.4 -2.4,-2.6 -3.7,-4.1 -1.4,-1.5 -3.2,-2.8 -4.9,-4.3 -1.9,-1.3 -3.8,-2.9 -6,-4.2 -1.1,-0.7 -2.1,-1.4 -3.2,-2.1 -1.2,-0.6 -2.3,-1.2 -3.5,-1.9 -2.3,-1.3 -4.8,-2.4 -7.2,-3.5 -2.5,-1 -5,-2.1 -7.5,-2.9 -2.5,-0.9 -5,-1.6 -7.4,-2.3 -2.4,-0.6 -4.8,-1.1 -7.1,-1.5 -2.3,-0.2 -4.5,-0.7 -6.5,-0.7 -2,0 -3.9,-0.2 -5.5,0 -1.6,0.2 -3.1,0 -4.4,0.4 -2.5,0.5 -3.9,0.7 -3.9,0.7 0,0 1.2,-0.9 3.3,-2.2 1,-0.8 2.5,-1.3 4.2,-2 1.8,-0.8 3.7,-1.2 6,-1.6 2.2,-0.6 4.6,-0.6 7.2,-0.7 2.6,0 5.3,0.1 8.1,0.5 2.8,0.5 5.7,0.9 8.5,1.8 2.9,0.7 5.6,1.9 8.4,2.9 2.7,1.3 5.4,2.5 7.9,4.1 2.5,1.5 4.9,3.2 7,5 2.3,1.6 4.1,3.8 5.9,5.6 1.6,2 3.2,3.9 4.4,5.8 1.1,2 2.2,3.7 2.8,5.5 0.6,1.8 1.3,3.2 1.3,4.5 0.4,2.6 0.5,4 0.5,4 0,0 -0.8,-1.3 -2,-3.4 -0.6,-1 -1.8,-2.1 -2.7,-3.4 m 36.6,-8.8 c -1.8,0.1 -3.6,0.4 -5.4,0.7 -1.7,0.4 -3.4,0.7 -4.9,1.3 -1.6,0.5 -2.9,1.1 -4.2,1.7 -1.3,0.6 -2.3,1.4 -3.3,2 -0.8,0.7 -1.6,1.4 -2.2,1.9 -1,1.4 -1.7,2.2 -1.7,2.2 0,0 0.3,-0.9 1,-2.6 0.5,-0.7 1.1,-1.6 1.9,-2.7 0.9,-0.9 1.9,-1.9 3.1,-2.8 1.3,-0.9 2.6,-1.9 4.3,-2.6 1.6,-0.8 3.3,-1.4 5.2,-2 1.9,-0.5 3.8,-1 5.8,-1.2 2,-0.2 4.1,-0.3 6.2,-0.2 2.1,0 4.1,0.6 6.1,1 2,0.7 3.9,1.2 5.6,2.3 0.9,0.5 1.8,0.9 2.5,1.5 l 2.1,1.8 c 1.4,1.1 2.3,2.7 3.3,3.8 0.9,1.3 1.4,2.7 1.9,3.8 0.6,1.1 0.7,2.2 0.9,3.1 0.4,1.7 0.5,2.7 0.5,2.7 0,0 -0.5,-0.9 -1.3,-2.4 -0.4,-0.7 -0.7,-1.7 -1.5,-2.6 -0.8,-0.9 -1.4,-2 -2.4,-3 -1.1,-0.9 -2,-2.1 -3.4,-2.9 -1.3,-0.9 -2.7,-1.8 -4.3,-2.4 -1.5,-0.8 -3.3,-1.1 -5,-1.7 -1.8,-0.3 -3.6,-0.7 -5.4,-0.7 -1.7,-0.2 -3.6,-0.1 -5.4,0 m 22.8,-12.7 c 4.5,-6.6 18.5,-57 21.3,-70.7 2.7,-13.7 42.5,35 61.7,31.5 v 3.1 c -4.6,4.9 -40.1,-16.4 -51.4,-21.9 -11.3,-5.5 -18.2,63.3 -22.6,66.1 -4.6,2.9 -8,-4.7 -9,-8.1 m -83.3,-22.7 c 5.1,-1.4 6.9,-28.1 12,-30.2 5.1,-2.1 31.8,47.7 35,55.4 l -12.7,7.5 c 0,0 -14.4,-46.7 -18.7,-48.4 -4.3,-1.7 -9.8,20.2 -9.8,20.2 0,0 -6.5,1 -5.8,-4.5"
       id="path2"
       style="fill:#ffffff" />
    <path
       transform="matrix(0.37238,0,0,0.37238,-126.66,60.042)"
       d="m 1827.8,531.16 c -6.9905,0.33328 -7.2421,9.3849 -9.113,14.376 -13.974,55.997 -29.005,111.86 -48.407,166.21 -1.7363,6.3161 -6.6006,12.182 -6.4677,18.92 3.33,8.7315 7.8504,20.007 18.134,22.005 8.4639,0.50724 11.008,-9.4924 12.555,-15.968 11.873,-47.065 17.72,-95.791 34.017,-141.56 3.6357,-8.0288 6.5924,-18.488 15.48,-22.08 7.3598,0.17555 13.358,6.0564 20.067,8.6622 33.669,17.353 66.498,36.872 102.2,49.861 6.627,1.7747 15.391,5.2687 21.232,0.0562 1.3251,-3.4535 2.2244,-11.076 -3.6051,-9.3977 -19.366,0.68099 -36.672,-10.026 -52.441,-20.077 -29.61,-19.611 -55.986,-43.941 -85.633,-63.609 -5.5848,-3.1256 -11.42,-7.1259 -18.017,-7.4017 z"
       fill="#ff6400"
       stroke-width="47.944"
       id="path4" />
    <path
       transform="matrix(0.37238,0,0,0.37238,-126.66,60.042)"
       d="m 1573.4,585.44 c -6.8017,2.5464 -8.639,11.106 -11.115,17.163 -6.609,19.605 -8.8521,40.749 -17.866,59.448 -2.7645,3.4073 -7.1241,7.5739 -4.0378,12.36 2.8582,4.9951 10.981,8.735 15.941,4.9816 5.7003,-15.616 9.1557,-32.404 17.781,-46.845 1.8713,-2.6932 5.9676,-9.1288 9.4138,-4.6264 9.5667,13.934 14.285,30.566 20.525,46.135 9.9462,26.716 18.349,54.006 27.587,80.953 4.1847,1.4165 7.9661,-4.1147 11.937,-5.2911 7.7327,-4.9615 16.452,-8.893 23.519,-14.568 -7.9352,-20.072 -19.595,-38.574 -29.733,-57.628 -17.259,-29.807 -33.158,-60.976 -56.096,-86.946 -2.24,-2.0118 -4.5973,-5.0868 -7.8564,-5.1352 z"
       fill="#ff6400"
       stroke-width="47.944"
       id="path6" />
  </g>
  <rect
     x="661.46"
     y="34.396"
     width="13.229"
     height="264.58"
     fill="#ff6400"
     fill-opacity=".99954"
     stroke-width="4.1104"
     id="rect10" />
  <rect
     x="682.62"
     y="34.396"
     width="5.2917"
     height="264.58"
     fill="#ff6400"
     fill-opacity=".99954"
     stroke-width="2.5997"
     id="rect12" />
  <g
     id="g18">
    <text
       x="743.60168"
       y="241.97021"
       fill="#ff6400"
       font-family="Akbaal"
       font-size="141.11px"
       stroke-width="2.9501"
       style="line-height:1.25;font-variant-ligatures:normal;font-variant-caps:normal;font-variant-numeric:normal;font-variant-east-asian:normal"
       xml:space="preserve"
       id="text16"><tspan
         x="743.60168"
         y="241.97021"
         fill="#ff6400"
         font-family="Akbaal"
         font-size="141.11px"
         stroke-width="2.9501"
         style="font-variant-ligatures:normal;font-variant-caps:normal;font-variant-numeric:normal;font-variant-east-asian:normal"
         id="tspan14">FC</tspan></text>
  </g>
  <g
     id="g24"
     style="fill:#ffffff">
    <text
       x="1066.8073"
       y="242.39803"
       fill="#000000"
       font-family="Akbaal"
       font-size="105.83px"
       stroke-width="3.584"
       style="line-height:1.25;font-variant-ligatures:normal;font-variant-caps:normal;font-variant-numeric:normal;font-variant-east-asian:normal;fill:#ffffff;paint-order:normal"
       xml:space="preserve"
       id="text22"><tspan
         x="1066.8073"
         y="242.39803"
         id="tspan20"
         style="fill:#ffffff">Consulting</tspan></text>
  </g>
</svg>
